<svg xmlns="http://www.w3.org/2000/svg" viewBox="0 0 26 26">
<g>
	<path fill="#BDBDBD" stroke="#BDBDBD" stroke-width="0.5" stroke-miterlimit="10" d="M24.401,23.505l-5.878-5.878
		c1.502-1.741,2.412-4.007,2.412-6.486c0-5.489-4.45-9.94-9.94-9.94s-9.939,4.45-9.939,9.94c0,5.489,4.45,9.939,9.939,9.939
		c2.479,0,4.745-0.91,6.486-2.412l5.878,5.878L24.401,23.505z M1.792,11.141c0-5.075,4.128-9.203,9.203-9.203
		s9.203,4.128,9.203,9.203c0,5.075-4.128,9.203-9.203,9.203S1.792,16.215,1.792,11.141z"/>
	<g>
		<path fill="#BDBDBD" stroke="#BDBDBD" stroke-width="0.25" stroke-miterlimit="10" d="M11.578,10.582h4.326v1.094h-4.326v4.707
			h-1.182v-4.707H6.158v-1.094h4.238V6.031h1.182V10.582z"/>
	</g>
</g>
</svg>
