<?xml version="1.0" encoding="utf-8"?>
<!-- Generator: Adobe Illustrator 17.1.0, SVG Export Plug-In . SVG Version: 6.00 Build 0)  -->
<!DOCTYPE svg PUBLIC "-//W3C//DTD SVG 1.1//EN" "http://www.w3.org/Graphics/SVG/1.1/DTD/svg11.dtd" [
	<!ENTITY ns_flows "http://ns.adobe.com/Flows/1.0/">
	<!ENTITY ns_extend "http://ns.adobe.com/Extensibility/1.0/">
	<!ENTITY ns_ai "http://ns.adobe.com/AdobeIllustrator/10.0/">
	<!ENTITY ns_graphs "http://ns.adobe.com/Graphs/1.0/">
]>
<svg version="1.1" id="Layer_1" xmlns:x="&ns_extend;" xmlns:i="&ns_ai;" xmlns:graph="&ns_graphs;"
	 xmlns="http://www.w3.org/2000/svg" xmlns:xlink="http://www.w3.org/1999/xlink" xmlns:a="http://ns.adobe.com/AdobeSVGViewerExtensions/3.0/"
	 x="0px" y="0px" viewBox="0 0 32 32" enable-background="new 0 0 32 32" xml:space="preserve">
<g>
	<path fill="#EF4F25" d="M15.627,31.917c-6.318,0-10.393-3.464-7.625-8.619c0.263-0.49,0.673-0.618,1.143-0.327
		c0.472,0.292,0.128,1.387-0.057,1.91c-1.248,3.538,2.329,5.027,6.539,5.027c7.715,0,13.992-6.277,13.992-13.992
		c0-7.715-6.277-13.991-13.992-13.991c-7.715,0-13.991,6.277-13.991,13.991c0,2.86,0.857,5.61,2.478,7.953
		c0.316,0.456,0.202,1.082-0.254,1.397c-0.456,0.315-1.082,0.201-1.397-0.254c-1.855-2.68-2.835-5.826-2.835-9.096
		c0-8.822,7.177-16,16-16s16,7.177,16,16S24.449,31.917,15.627,31.917z"/>
	<path fill="#EF4F25" d="M20.249,5.176c-0.905-0.282-2.566-0.644-3.759,0.088c-0.725,0.444-3.538,2.355-6.225,7.699
		c-2.687,5.343-2.544,8.741-2.468,9.588c0.124,1.394,1.405,2.511,2.171,3.07c0.398,0.291,1.287,0.884,1.847,0.941
		c0.661,0.067,1.443-0.254,2.325-1.515c0.95-1.361,1.062-2.298,0.994-2.657c-0.069-0.366-0.282-0.778-1.223-1.399
		c-0.525-0.346-1.168-0.761-1.385-1.286c-0.052-0.125-0.857-1.535,0.95-5.127s3.418-3.786,3.549-3.819
		c0.551-0.138,1.267,0.13,1.858,0.345c1.06,0.386,1.517,0.311,1.852,0.148c0.329-0.16,1.015-0.809,1.54-2.383
		c0.487-1.46,0.278-2.279-0.17-2.77C21.726,5.682,20.72,5.323,20.249,5.176z"/>
</g>
</svg>
