<svg xmlns="http://www.w3.org/2000/svg" viewBox="0 0 19 20">
<path fill="#727272" stroke="#727272" stroke-width="0.5" stroke-miterlimit="10" d="M17.565,19.188
	c-0.135-0.121-0.281-0.232-0.403-0.364c-1.711-1.862-3.419-3.727-5.128-5.591c-0.024-0.026-0.048-0.052-0.079-0.086
	c-0.227,0.154-0.445,0.314-0.674,0.457c-1.323,0.826-2.768,1.154-4.312,0.99c-1.709-0.181-3.152-0.916-4.32-2.183
	c-0.847-0.918-1.392-1.992-1.648-3.211C0.929,8.859,0.901,8.51,0.853,8.165c0-0.237,0-0.474,0-0.711
	c0.009-0.046,0.024-0.092,0.027-0.138c0.041-0.63,0.157-1.246,0.39-1.833C2.27,2.967,4.1,1.479,6.781,1.051
	c0.18-0.029,0.363-0.046,0.544-0.069c0.237,0,0.474,0,0.711,0c0.181,0.023,0.363,0.04,0.544,0.068
	c2.559,0.395,4.361,1.793,5.402,4.147c0.519,1.173,0.637,2.417,0.434,3.688c-0.208,1.302-0.749,2.446-1.622,3.434
	c-0.047,0.053-0.093,0.108-0.138,0.162c-0.008,0.009-0.013,0.02-0.03,0.046c0.07,0.078,0.143,0.16,0.218,0.241
	c1.701,1.856,3.402,3.712,5.102,5.568c0.317,0.346,0.255,0.659-0.168,0.851C17.707,19.188,17.636,19.188,17.565,19.188z
	 M7.684,1.897C4.433,1.888,1.776,4.542,1.768,7.806c-0.009,3.251,2.645,5.908,5.909,5.917c3.251,0.008,5.908-2.645,5.917-5.909
	C13.601,4.563,10.947,1.906,7.684,1.897z"/>
</svg>
