<?xml version="1.0" encoding="utf-8"?><svg xmlns="http://www.w3.org/2000/svg" xmlns:xlink="http://www.w3.org/1999/xlink"><symbol viewBox="0 0 17 17" id="check"><path fill="#fff" stroke="#fe8500" stroke-width="3" d="M4 8l4 3 5-7"/></symbol><symbol viewBox="0 0 30 18" id="e-mail"><path fill="#F04E25" d="M.5-.083h30v18H.5z"/><path fill="#FFF" d="M2.5 1.917h26v14h-26z"/><path fill="#F04E25" d="M29.48 1.304l-.632-.775L15.5 11.438 2.152.529l-.632.775 9.315 7.613-9.315 7.612.632.775 9.473-7.742 3.875 3.167 3.875-3.167 9.473 7.742.632-.775-9.315-7.612z"/></symbol><symbol viewBox="0 0 26 26" id="linz"><path fill="#BDBDBD" stroke="#BDBDBD" stroke-width=".5" stroke-miterlimit="10" d="M24.401 23.505l-5.878-5.878a9.896 9.896 0 0 0 2.412-6.486c0-5.489-4.45-9.94-9.94-9.94s-9.939 4.45-9.939 9.94c0 5.489 4.45 9.939 9.939 9.939 2.479 0 4.745-.91 6.486-2.412l5.878 5.878 1.042-1.041zM1.792 11.141c0-5.075 4.128-9.203 9.203-9.203s9.203 4.128 9.203 9.203c0 5.075-4.128 9.203-9.203 9.203s-9.203-4.129-9.203-9.203z"/><path fill="#BDBDBD" stroke="#BDBDBD" stroke-width=".25" stroke-miterlimit="10" d="M11.578 10.582h4.326v1.094h-4.326v4.707h-1.182v-4.707H6.158v-1.094h4.238V6.031h1.182v4.551z"/></symbol><symbol viewBox="0 0 32 32" id="phone"><g fill="#EF4F25"><path d="M15.627 31.917c-6.318 0-10.393-3.464-7.625-8.619.263-.49.673-.618 1.143-.327.472.292.128 1.387-.057 1.91-1.248 3.538 2.329 5.027 6.539 5.027 7.715 0 13.992-6.277 13.992-13.992 0-7.715-6.277-13.991-13.992-13.991-7.715 0-13.991 6.277-13.991 13.991 0 2.86.857 5.61 2.478 7.953a1.003 1.003 0 1 1-1.651 1.143 15.91 15.91 0 0 1-2.835-9.096c0-8.822 7.177-16 16-16s16 7.177 16 16-7.179 16.001-16.001 16.001z"/><path d="M20.249 5.176c-.905-.282-2.566-.644-3.759.088-.725.444-3.538 2.355-6.225 7.699-2.687 5.343-2.544 8.741-2.468 9.588.124 1.394 1.405 2.511 2.171 3.07.398.291 1.287.884 1.847.941.661.067 1.443-.254 2.325-1.515.95-1.361 1.062-2.298.994-2.657-.069-.366-.282-.778-1.223-1.399-.525-.346-1.168-.761-1.385-1.286-.052-.125-.857-1.535.95-5.127s3.418-3.786 3.549-3.819c.551-.138 1.267.13 1.858.345 1.06.386 1.517.311 1.852.148.329-.16 1.015-.809 1.54-2.383.487-1.46.278-2.279-.17-2.77-.379-.417-1.385-.776-1.856-.923z"/></g></symbol><symbol viewBox="0 0 19 20" id="search"><path fill="#727272" stroke="#727272" stroke-width=".5" stroke-miterlimit="10" d="M17.565 19.188c-.135-.121-.281-.232-.403-.364-1.711-1.862-3.419-3.727-5.128-5.591l-.079-.086c-.227.154-.445.314-.674.457a6.622 6.622 0 0 1-4.312.99c-1.709-.181-3.152-.916-4.32-2.183A6.671 6.671 0 0 1 1.001 9.2c-.072-.341-.1-.69-.148-1.035v-.711c.009-.046.024-.092.027-.138.041-.63.157-1.246.39-1.833 1-2.516 2.83-4.004 5.511-4.432.18-.029.363-.046.544-.069h.711c.181.023.363.04.544.068 2.559.395 4.361 1.793 5.402 4.147.519 1.173.637 2.417.434 3.688a6.675 6.675 0 0 1-1.622 3.434 6.954 6.954 0 0 0-.138.162c-.008.009-.013.02-.03.046.07.078.143.16.218.241l5.102 5.568c.317.346.255.659-.168.851l-.213.001zM7.684 1.897c-3.251-.009-5.908 2.645-5.916 5.909-.009 3.251 2.645 5.908 5.909 5.917 3.251.008 5.908-2.645 5.917-5.909.007-3.251-2.647-5.908-5.91-5.917z"/></symbol></svg>