<?xml version="1.0" encoding="utf-8"?><svg xmlns="http://www.w3.org/2000/svg" xmlns:xlink="http://www.w3.org/1999/xlink"><symbol viewBox="0 0 19 18" id="icon1"><g fill="#FE8F14" stroke="#FE8F14" stroke-width=".25" stroke-miterlimit="10"><path d="M14.529 12.004c-.407 0-.778.155-1.059.407a1.588 1.588 0 1 0 0 2.362 1.588 1.588 0 1 0 1.059-2.769zm0 2.912c-.325 0-.638-.12-.882-.339l-.177-.158-.177.158a1.32 1.32 0 0 1-2.206-.985c0-.73.594-1.324 1.324-1.324.325 0 .638.12.882.339l.177.158.177-.158a1.32 1.32 0 0 1 2.206.985c0 .73-.594 1.324-1.324 1.324z"/><path d="M17.035 6.058l-1.501-4.115a1.617 1.617 0 0 0-2.063-.96L2.088 5.117a1.61 1.61 0 0 0-.997 1.946h.003c-.041.14-.064.288-.064.441v7.941c0 .873.715 1.588 1.588 1.588h13.765c.873 0 1.588-.715 1.588-1.588V7.504c0-.641-.386-1.196-.936-1.446zm-.623-.141l-.03-.002h-5.283l4.691-1.704.622 1.706zm-.714-1.957l-5.384 1.956H6.28l8.947-3.25.471 1.294zM2.272 5.621l11.382-4.135a1.08 1.08 0 0 1 1.376.641l.105.287-9.64 3.502H2.618c-.369 0-.708.128-.978.341.104-.285.324-.524.632-.636zm15.169 9.824a1.06 1.06 0 0 1-1.059 1.059H2.618a1.06 1.06 0 0 1-1.059-1.059V7.504a1.06 1.06 0 0 1 1.059-1.059h13.765a1.06 1.06 0 0 1 1.059 1.059v7.941z"/><path d="M6.588 7.769H3.412a.53.53 0 0 0-.529.529v2.118a.53.53 0 0 0 .529.529h3.176a.53.53 0 0 0 .529-.529V8.298a.53.53 0 0 0-.529-.529zm.265 1.058h-.794v.265h.794v.529h-.794v.265h.794v.529a.265.265 0 0 1-.265.265H3.412a.265.265 0 0 1-.265-.265v-.529h.794v-.265h-.794v-.529h.794v-.265h-.794v-.529c0-.146.119-.265.265-.265h3.176c.146 0 .265.119.265.265v.529z"/></g></symbol><symbol viewBox="0 0 17 18" id="icon2"><g fill="#FE8F14" stroke="#FE8F14" stroke-width=".25" stroke-miterlimit="10"><path d="M3.703 11.66h9.287v.619H3.703zM3.703 9.803h9.287v.619H3.703zM3.703 7.945h9.287v.619H3.703zM3.703 13.517h9.287v.619H3.703z"/><path d="M11.443 1.135H.917V17h14.859V4.574l-4.333-3.439zm0 .701l3.42 2.738h-3.42V1.836zm3.714 14.668H1.536V1.631h9.287v3.44h4.334v11.433z"/></g></symbol><symbol viewBox="0 0 19 18" id="icon4"><g fill="#FE8F14" stroke="#FE8F14" stroke-width=".25" stroke-miterlimit="10"><path d="M14.529 12.004c-.407 0-.778.155-1.059.407a1.588 1.588 0 1 0 0 2.362 1.588 1.588 0 1 0 1.059-2.769zm0 2.912c-.325 0-.638-.12-.882-.339l-.177-.158-.177.158a1.32 1.32 0 0 1-2.206-.985c0-.73.594-1.324 1.324-1.324.325 0 .638.12.882.339l.177.158.177-.158a1.32 1.32 0 0 1 2.206.985c0 .73-.594 1.324-1.324 1.324z"/><path d="M17.035 6.058l-1.501-4.115a1.617 1.617 0 0 0-2.063-.96L2.088 5.117a1.61 1.61 0 0 0-.997 1.946h.003c-.041.14-.064.288-.064.441v7.941c0 .873.715 1.588 1.588 1.588h13.765c.873 0 1.588-.715 1.588-1.588V7.504c0-.641-.386-1.196-.936-1.446zm-.623-.141l-.03-.002h-5.283l4.691-1.704.622 1.706zm-.714-1.957l-5.384 1.956H6.28l8.947-3.25.471 1.294zM2.272 5.621l11.382-4.135a1.08 1.08 0 0 1 1.376.641l.105.287-9.64 3.502H2.618c-.369 0-.708.128-.978.341.104-.285.324-.524.632-.636zm15.169 9.824a1.06 1.06 0 0 1-1.059 1.059H2.618a1.06 1.06 0 0 1-1.059-1.059V7.504a1.06 1.06 0 0 1 1.059-1.059h13.765a1.06 1.06 0 0 1 1.059 1.059v7.941z"/><path d="M6.588 7.769H3.412a.53.53 0 0 0-.529.529v2.118a.53.53 0 0 0 .529.529h3.176a.53.53 0 0 0 .529-.529V8.298a.53.53 0 0 0-.529-.529zm.265 1.058h-.794v.265h.794v.529h-.794v.265h.794v.529a.265.265 0 0 1-.265.265H3.412a.265.265 0 0 1-.265-.265v-.529h.794v-.265h-.794v-.529h.794v-.265h-.794v-.529c0-.146.119-.265.265-.265h3.176c.146 0 .265.119.265.265v.529z"/></g></symbol></svg>